<svg xmlns="http://www.w3.org/2000/svg" version="1.1" xmlns:xlink="http://www.w3.org/1999/xlink" xmlns:svgjs="http://svgjs.dev/svgjs" width="2000" height="550" viewBox="0 0 2000 550"><g transform="matrix(1,0,0,1,-1.2121212121212466,1.1378800837894687)"><svg viewBox="0 0 396 109" data-background-color="#ffffff" preserveAspectRatio="xMidYMid meet" height="550" width="2000" xmlns="http://www.w3.org/2000/svg" xmlns:xlink="http://www.w3.org/1999/xlink"><g id="tight-bounds" transform="matrix(1,0,0,1,0.2400000000000091,-0.22550714387827497)"><svg viewBox="0 0 395.52 109.45101428775655" height="109.45101428775655" width="395.52"><g><svg viewBox="0 0 590.6705401007089 163.45441374372868" height="109.45101428775655" width="395.52"><g transform="matrix(1,0,0,1,195.15054010070884,48.161611092348245)"><svg viewBox="0 0 395.52 67.13119155903219" height="67.13119155903219" width="395.52"><g id="textblocktransform"><svg viewBox="0 0 395.52 67.13119155903219" height="67.13119155903219" width="395.52" id="textblock"><g><svg viewBox="0 0 395.52 67.13119155903219" height="67.13119155903219" width="395.52"><g transform="matrix(1,0,0,1,0,0)"><svg width="395.52" viewBox="2.3 -36.5 274.83 46.65" height="67.13119155903219" data-palette-color="#085f63"><path d="M19.35 0L3.65 0 3.65-4.25 18.8-4.25Q20.55-4.25 21.8-5.08 23.05-5.9 23.75-7.2 24.45-8.5 24.45-9.95L24.45-9.95Q24.45-11.45 23.78-12.73 23.1-14 21.88-14.78 20.65-15.55 18.9-15.55L18.9-15.55 12.3-15.55Q9.35-15.55 7.1-16.78 4.85-18 3.58-20.18 2.3-22.35 2.3-25.1L2.3-25.1Q2.3-27.9 3.53-30.15 4.75-32.4 6.98-33.7 9.2-35 12.1-35L12.1-35 26.95-35 26.95-30.75 12.55-30.75Q10.9-30.75 9.65-29.98 8.4-29.2 7.75-27.98 7.1-26.75 7.1-25.35L7.1-25.35Q7.1-24 7.73-22.78 8.35-21.55 9.58-20.8 10.8-20.05 12.4-20.05L12.4-20.05 19.15-20.05Q22.3-20.05 24.55-18.8 26.8-17.55 28-15.4 29.2-13.25 29.2-10.5L29.2-10.5Q29.2-7.45 27.98-5.08 26.75-2.7 24.5-1.35 22.25 0 19.35 0L19.35 0ZM43.55 0.6L43.55 0.6Q41.15 0.6 39.22-0.33 37.3-1.25 36.15-3.23 35-5.2 35-8.3L35-8.3 35-25.5 39.6-25.5 39.6-7.5Q39.6-6.15 40.15-5.2 40.7-4.25 41.6-3.8 42.5-3.35 43.5-3.35L43.5-3.35Q44.5-3.35 45.4-3.83 46.3-4.3 46.87-5.23 47.45-6.15 47.45-7.5L47.45-7.5 47.45-17.4Q47.45-20.35 48.55-22.28 49.65-24.2 51.55-25.15 53.45-26.1 55.85-26.1L55.85-26.1Q58.25-26.1 60.15-25.15 62.05-24.2 63.15-22.28 64.25-20.35 64.25-17.4L64.25-17.4 64.25-7.5Q64.25-6.15 64.8-5.23 65.35-4.3 66.25-3.83 67.15-3.35 68.2-3.35L68.2-3.35Q69.25-3.35 70.1-3.83 70.95-4.3 71.5-5.23 72.05-6.15 72.05-7.5L72.05-7.5 72.05-25.5 76.7-25.5 76.7-8.3Q76.7-5.2 75.55-3.23 74.4-1.25 72.47-0.33 70.55 0.6 68.2 0.6L68.2 0.6Q65.9 0.6 63.95-0.33 62-1.25 60.82-3.23 59.65-5.2 59.65-8.3L59.65-8.3 59.65-18.1Q59.65-19.5 59.1-20.4 58.55-21.3 57.7-21.73 56.85-22.15 55.85-22.15L55.85-22.15Q54.85-22.15 53.97-21.73 53.1-21.3 52.57-20.4 52.05-19.5 52.05-18.1L52.05-18.1 52.05-8.3Q52.05-5.2 50.87-3.23 49.7-1.25 47.77-0.33 45.85 0.6 43.55 0.6ZM103.5 0L96.94 0Q92.75 0 89.5-1.58 86.25-3.15 84.42-6.03 82.59-8.9 82.59-12.75L82.59-12.75Q82.59-16.55 84.14-19.58 85.69-22.6 88.44-24.35 91.19-26.1 94.84-26.1L94.84-26.1Q98.8-26.1 101.42-24.4 104.05-22.7 105.34-19.83 106.64-16.95 106.64-13.4L106.64-13.4Q106.64-12.85 106.62-12.25 106.59-11.65 106.5-11.2L106.5-11.2 87.5-11.2Q87.75-8.85 89.05-7.23 90.34-5.6 92.37-4.78 94.39-3.95 96.84-3.95L96.84-3.95 103.5-3.95 103.5 0ZM87.44-14.45L87.44-14.45 102-14.45Q102-15.4 101.8-16.48 101.59-17.55 101.09-18.57 100.59-19.6 99.77-20.43 98.94-21.25 97.72-21.75 96.5-22.25 94.84-22.25L94.84-22.25Q93.09-22.25 91.77-21.58 90.44-20.9 89.5-19.78 88.55-18.65 88.05-17.25 87.55-15.85 87.44-14.45ZM123.09 0.6L123.09 0.6Q119.39 0.6 116.69-1.18 113.99-2.95 112.54-6 111.09-9.05 111.09-12.75L111.09-12.75Q111.09-16.5 112.69-19.53 114.29-22.55 117.29-24.33 120.29-26.1 124.49-26.1L124.49-26.1Q128.54-26.1 131.44-24.35 134.34-22.6 135.92-19.6 137.49-16.6 137.49-12.9L137.49-12.9 137.49 0 132.84 0 132.84-5.2 132.74-5.2Q131.99-3.75 130.72-2.43 129.44-1.1 127.54-0.25 125.64 0.6 123.09 0.6ZM124.29-3.35L124.29-3.35Q126.79-3.35 128.72-4.58 130.64-5.8 131.72-7.98 132.79-10.15 132.79-12.85L132.79-12.85Q132.79-15.5 131.77-17.6 130.74-19.7 128.84-20.93 126.94-22.15 124.39-22.15L124.39-22.15Q121.69-22.15 119.77-20.9 117.84-19.65 116.82-17.53 115.79-15.4 115.79-12.7L115.79-12.7Q115.79-10.1 116.79-7.98 117.79-5.85 119.69-4.6 121.59-3.35 124.29-3.35ZM159.49 0L153.49 0Q150.09 0 148.17-1.95 146.24-3.9 146.24-7.25L146.24-7.25 146.24-31.9 150.84-31.9 150.84-7.55Q150.84-5.9 151.77-4.93 152.69-3.95 154.34-3.95L154.34-3.95 159.49-3.95 159.49 0ZM159.59-21.55L141.84-21.55 141.84-25.5 159.59-25.5 159.59-21.55ZM185.39 0L180.89 0Q176.89-0.05 173.59-1.43 170.29-2.8 167.91-5.2 165.54-7.6 164.26-10.75 162.99-13.9 162.99-17.5L162.99-17.5Q162.99-21.1 164.26-24.25 165.54-27.4 167.91-29.8 170.29-32.2 173.59-33.58 176.89-34.95 180.89-35L180.89-35 185.39-35 185.39-30.75 181.04-30.75Q178.19-30.75 175.79-29.73 173.39-28.7 171.61-26.93 169.84-25.15 168.84-22.75 167.84-20.35 167.84-17.5L167.84-17.5Q167.84-14.7 168.84-12.28 169.84-9.85 171.61-8.08 173.39-6.3 175.79-5.3 178.19-4.3 181.04-4.25L181.04-4.25 185.39-4.25 185.39 0ZM205.09 10.15L200.49 10.15 200.49 0.4Q197.69 0 195.51-1.48 193.34-2.95 192.09-5.33 190.84-7.7 190.84-10.75L190.84-10.75 190.84-25.5 195.49-25.5 195.49-10.8Q195.49-8.5 196.49-6.83 197.49-5.15 199.16-4.25 200.84-3.35 202.74-3.35L202.74-3.35Q204.69-3.35 206.36-4.25 208.03-5.15 209.06-6.83 210.09-8.5 210.09-10.8L210.09-10.8 210.09-25.5 214.69-25.5 214.69-10.75Q214.69-7.7 213.46-5.35 212.24-3 210.06-1.53 207.88-0.05 205.09 0.4L205.09 0.4 205.09 10.15ZM237.33 0L234.33 0Q230.38 0 227.28-1.7 224.18-3.4 222.38-6.28 220.58-9.15 220.58-12.75L220.58-12.75Q220.58-16.35 222.38-19.23 224.18-22.1 227.28-23.8 230.38-25.5 234.33-25.5L234.33-25.5 237.33-25.5 237.33-21.55 234.18-21.55Q231.63-21.55 229.61-20.38 227.58-19.2 226.41-17.2 225.23-15.2 225.23-12.75L225.23-12.75Q225.23-10.3 226.41-8.3 227.58-6.3 229.61-5.13 231.63-3.95 234.18-3.95L234.18-3.95 237.33-3.95 237.33 0ZM247.18 0L242.58 0 242.58-36.5 247.18-36.5 247.18 0ZM273.98 0L267.43 0Q263.23 0 259.98-1.58 256.73-3.15 254.9-6.03 253.08-8.9 253.08-12.75L253.08-12.75Q253.08-16.55 254.63-19.58 256.18-22.6 258.93-24.35 261.68-26.1 265.33-26.1L265.33-26.1Q269.28-26.1 271.9-24.4 274.53-22.7 275.83-19.83 277.13-16.95 277.13-13.4L277.13-13.4Q277.13-12.85 277.1-12.25 277.08-11.65 276.98-11.2L276.98-11.2 257.98-11.2Q258.23-8.85 259.53-7.23 260.83-5.6 262.85-4.78 264.88-3.95 267.33-3.95L267.33-3.95 273.98-3.95 273.98 0ZM257.93-14.45L257.93-14.45 272.48-14.45Q272.48-15.4 272.28-16.48 272.08-17.55 271.58-18.57 271.08-19.6 270.25-20.43 269.43-21.25 268.2-21.75 266.98-22.25 265.33-22.25L265.33-22.25Q263.58-22.25 262.25-21.58 260.93-20.9 259.98-19.78 259.03-18.65 258.53-17.25 258.03-15.85 257.93-14.45Z" opacity="1" transform="matrix(1,0,0,1,0,0)" fill="#085f63" class="wordmark-text-0" data-fill-palette-color="primary" id="text-0"></path></svg></g></svg></g></svg></g></svg></g><g><svg viewBox="0 0 163.45441374372868 163.45441374372868" height="163.45441374372868" width="163.45441374372868"><g><svg></svg></g><g id="icon-0"><svg viewBox="0 0 163.45441374372868 163.45441374372868" height="163.45441374372868" width="163.45441374372868"><g><path d="M0 81.727c0-45.137 36.591-81.727 81.727-81.727 45.137 0 81.727 36.591 81.727 81.727 0 45.137-36.591 81.727-81.727 81.727-45.137 0-81.727-36.591-81.727-81.727zM81.727 157.4c41.793 0 75.673-33.88 75.673-75.673 0-41.793-33.88-75.673-75.673-75.673-41.793 0-75.673 33.88-75.673 75.673 0 41.793 33.88 75.673 75.673 75.673z" data-fill-palette-color="accent" fill="#49beb7" stroke="transparent"></path><ellipse rx="80.90993480314569" ry="80.90993480314569" cx="81.72720687186434" cy="81.72720687186434" fill="#49beb7" stroke="transparent" stroke-width="0" fill-opacity="1" data-fill-palette-color="accent"></ellipse></g><g transform="matrix(1,0,0,1,34.43182267941793,60.87961649885301)"><svg viewBox="0 0 94.59076838489283 41.69518074602265" height="41.69518074602265" width="94.59076838489283"><g><svg xmlns:x="http://ns.adobe.com/Extensibility/1.0/" xmlns:i="http://ns.adobe.com/AdobeIllustrator/10.0/" xmlns:graph="http://ns.adobe.com/Graphs/1.0/" xmlns="http://www.w3.org/2000/svg" xmlns:xlink="http://www.w3.org/1999/xlink" version="1.1" x="0" y="0" viewBox="6 30.605 88 38.790000000000006" enable-background="new 0 0 100 100" xml:space="preserve" height="41.69518074602265" width="94.59076838489283" class="icon-cg-0" data-fill-palette-color="quaternary" id="cg-0"><g fill="#ffffff" data-fill-palette-color="quaternary"><path d="M94 50c0-0.442-0.195-0.836-0.5-1.111V47.5c0-0.552-0.447-1-1-1s-1 0.448-1 1v1h-1.974v-8.789c0-2.308-1.877-4.185-4.185-4.185H84c-2.308 0-4.185 1.877-4.185 4.185V48.5h-1.474V35.237c0-2.308-1.877-4.185-4.184-4.185h-3.579c-2.308 0-4.185 1.877-4.185 4.185V43.5H33.605v-8.711c0-2.307-1.877-4.184-4.185-4.184h-3.579c-2.308 0-4.185 1.877-4.185 4.184V48.5h-1.474v-8.789c0-2.308-1.877-4.185-4.184-4.185h-1.342c-2.307 0-4.184 1.877-4.184 4.185V48.5H8.5v-1c0-0.552-0.448-1-1-1s-1 0.448-1 1v1.389C6.195 49.164 6 49.558 6 50s0.195 0.836 0.5 1.111V52.5c0 0.553 0.448 1 1 1s1-0.447 1-1v-1h1.974v8.789c0 2.308 1.877 4.185 4.184 4.185H16c2.307 0 4.184-1.877 4.184-4.185V51.5h1.474v13.263c0 2.308 1.877 4.185 4.185 4.185h3.579c2.308 0 4.185-1.877 4.185-4.185V56.5h32.789v8.71c0 2.308 1.877 4.185 4.185 4.185h3.579c2.307 0 4.184-1.877 4.184-4.185V51.5h1.474v8.789c0 2.308 1.877 4.185 4.185 4.185h1.342c2.308 0 4.185-1.877 4.185-4.185V51.5H91.5v1c0 0.553 0.447 1 1 1s1-0.447 1-1v-1.39C93.805 50.836 94 50.442 94 50zM17.184 60.289c0 0.653-0.531 1.185-1.184 1.185h-1.342c-0.653 0-1.184-0.531-1.184-1.185V39.711c0-0.653 0.531-1.185 1.184-1.185H16c0.653 0 1.184 0.531 1.184 1.185V60.289zM30.605 64.763c0 0.653-0.531 1.185-1.185 1.185h-3.579c-0.653 0-1.185-0.531-1.185-1.185V34.789c0-0.653 0.531-1.184 1.185-1.184h3.579c0.653 0 1.185 0.531 1.185 1.184V64.763zM66 53.5H34v-7h32V53.5zM75.342 65.21c0 0.653-0.531 1.185-1.184 1.185h-3.579c-0.653 0-1.185-0.531-1.185-1.185V35.237c0-0.653 0.531-1.185 1.185-1.185h3.579c0.652 0 1.184 0.531 1.184 1.185V65.21zM86.526 60.289c0 0.653-0.531 1.185-1.185 1.185H84c-0.653 0-1.185-0.531-1.185-1.185V39.711c0-0.653 0.531-1.185 1.185-1.185h1.342c0.653 0 1.185 0.531 1.185 1.185V60.289z" fill="#ffffff" data-fill-palette-color="quaternary"></path><path d="M37.5 51h25c0.553 0 1-0.448 1-1s-0.447-1-1-1h-25c-0.552 0-1 0.448-1 1S36.948 51 37.5 51z" fill="#ffffff" data-fill-palette-color="quaternary"></path></g></svg><g></g></g></svg></g></svg></g></svg></g></svg></g><defs></defs></svg><rect width="395.52" height="109.45101428775655" fill="none" stroke="none" visibility="hidden"></rect></g></svg></g></svg>