<svg xmlns="http://www.w3.org/2000/svg" version="1.1" xmlns:xlink="http://www.w3.org/1999/xlink" xmlns:svgjs="http://svgjs.dev/svgjs" width="2000" height="550" viewBox="0 0 2000 550"><g transform="matrix(1,0,0,1,-1.2121212121212466,-0.9651416507865633)"><svg viewBox="0 0 396 109" data-background-color="#ffffff" preserveAspectRatio="xMidYMid meet" height="550" width="2000" xmlns="http://www.w3.org/2000/svg" xmlns:xlink="http://www.w3.org/1999/xlink"><g id="tight-bounds" transform="matrix(1,0,0,1,0.2400000000000091,0.19127352715588586)"><svg viewBox="0 0 395.52 108.6174529456882" height="108.6174529456882" width="395.52"><g><svg viewBox="0 0 588.4593019664742 161.60232236497785" height="108.6174529456882" width="395.52"><g transform="matrix(1,0,0,1,192.93930196647426,47.615894995438566)"><svg viewBox="0 0 395.52 66.37053237410072" height="66.37053237410072" width="395.52"><g id="textblocktransform"><svg viewBox="0 0 395.52 66.37053237410072" height="66.37053237410072" width="395.52" id="textblock"><g><svg viewBox="0 0 395.52 66.37053237410072" height="66.37053237410072" width="395.52"><g transform="matrix(1,0,0,1,0,0)"><svg width="395.52" viewBox="2 -36.5 277.98 46.65" height="66.37053237410072" data-palette-color="#22c995"><g class="wordmark-text-0" data-fill-palette-color="primary" id="text-0"><path d="M19.35 0L3.45 0 3.45-6.3 18.45-6.3Q19.55-6.3 20.45-6.85 21.35-7.4 21.9-8.33 22.45-9.25 22.45-10.35L22.45-10.35Q22.45-11.5 21.9-12.43 21.35-13.35 20.45-13.9 19.55-14.45 18.45-14.45L18.45-14.45 12.6-14.45Q9.65-14.45 7.25-15.65 4.85-16.85 3.43-19.13 2-21.4 2-24.6L2-24.6Q2-27.75 3.35-30.08 4.7-32.4 7-33.7 9.3-35 12.1-35L12.1-35 27.3-35 27.3-28.7 12.8-28.7Q11.8-28.7 10.95-28.18 10.1-27.65 9.63-26.8 9.15-25.95 9.15-24.9L9.15-24.9Q9.15-23.85 9.63-23 10.1-22.15 10.95-21.65 11.8-21.15 12.8-21.15L12.8-21.15 18.85-21.15Q22.1-21.15 24.5-19.9 26.9-18.65 28.23-16.4 29.55-14.15 29.55-11.15L29.55-11.15Q29.55-7.6 28.18-5.1 26.8-2.6 24.48-1.3 22.15 0 19.35 0L19.35 0ZM44 0.6L44 0.6Q41.4 0.6 39.25-0.43 37.1-1.45 35.82-3.55 34.55-5.65 34.55-8.85L34.55-8.85 34.55-25.5 41.4-25.5 41.4-7.85Q41.4-7.15 41.75-6.55 42.1-5.95 42.7-5.6 43.3-5.25 44-5.25L44-5.25Q44.7-5.25 45.3-5.6 45.9-5.95 46.25-6.55 46.6-7.15 46.6-7.85L46.6-7.85 46.6-16.65Q46.6-19.65 47.77-21.75 48.95-23.85 51.07-24.98 53.2-26.1 56.05-26.1L56.05-26.1Q58.9-26.1 61.02-24.98 63.15-23.85 64.32-21.75 65.5-19.65 65.5-16.65L65.5-16.65 65.5-7.85Q65.5-7.15 65.85-6.55 66.2-5.95 66.8-5.6 67.4-5.25 68.1-5.25L68.1-5.25Q68.85-5.25 69.42-5.6 70-5.95 70.35-6.55 70.7-7.15 70.7-7.85L70.7-7.85 70.7-25.5 77.55-25.5 77.55-8.85Q77.55-5.65 76.27-3.55 75-1.45 72.85-0.43 70.7 0.6 68.1 0.6L68.1 0.6Q65.55 0.6 63.4-0.43 61.25-1.45 59.95-3.55 58.65-5.65 58.65-8.85L58.65-8.85 58.65-17.65Q58.65-18.4 58.3-18.98 57.95-19.55 57.37-19.9 56.8-20.25 56.05-20.25L56.05-20.25Q55.35-20.25 54.75-19.9 54.15-19.55 53.8-18.98 53.45-18.4 53.45-17.65L53.45-17.65 53.45-8.85Q53.45-5.65 52.15-3.55 50.85-1.45 48.72-0.43 46.6 0.6 44 0.6ZM104.09 0L96.9 0Q92.55 0 89.32-1.68 86.09-3.35 84.32-6.25 82.55-9.15 82.55-12.75L82.55-12.75Q82.55-16.8 84.2-19.8 85.84-22.8 88.7-24.45 91.55-26.1 95.15-26.1L95.15-26.1Q99.45-26.1 102.12-24.3 104.8-22.5 106.05-19.48 107.3-16.45 107.3-12.75L107.3-12.75Q107.3-12.25 107.25-11.58 107.2-10.9 107.09-10.55L107.09-10.55 89.84-10.55Q90.25-9 91.22-7.95 92.2-6.9 93.67-6.38 95.15-5.85 97-5.85L97-5.85 104.09-5.85 104.09 0ZM89.8-15.15L89.8-15.15 100.45-15.15Q100.34-16.1 100.09-16.93 99.84-17.75 99.4-18.4 98.95-19.05 98.34-19.5 97.75-19.95 96.95-20.2 96.15-20.45 95.2-20.45L95.2-20.45Q93.95-20.45 92.97-20 92-19.55 91.34-18.8 90.7-18.05 90.32-17.1 89.95-16.15 89.8-15.15ZM122.19 0.6L122.19 0.6Q118.69 0.6 116.09-1.2 113.49-3 112.07-6.03 110.64-9.05 110.64-12.7L110.64-12.7Q110.64-16.45 112.27-19.5 113.89-22.55 116.94-24.33 119.99-26.1 124.24-26.1L124.24-26.1Q128.54-26.1 131.49-24.3 134.44-22.5 135.99-19.45 137.54-16.4 137.54-12.7L137.54-12.7 137.54 0 130.69 0 130.69-4.25 130.59-4.25Q129.84-2.9 128.72-1.8 127.59-0.7 125.99-0.05 124.39 0.6 122.19 0.6ZM124.14-5.25L124.14-5.25Q126.14-5.25 127.59-6.25 129.04-7.25 129.82-8.97 130.59-10.7 130.59-12.8L130.59-12.8Q130.59-14.9 129.82-16.57 129.04-18.25 127.59-19.25 126.14-20.25 124.14-20.25L124.14-20.25Q122.09-20.25 120.62-19.25 119.14-18.25 118.37-16.57 117.59-14.9 117.59-12.8L117.59-12.8Q117.59-10.7 118.37-8.97 119.14-7.25 120.62-6.25 122.09-5.25 124.14-5.25ZM159.64 0L152.89 0Q149.49 0 147.57-1.95 145.64-3.9 145.64-7.25L145.64-7.25 145.64-31.9 152.49-31.9 152.49-7.45Q152.49-6.8 152.97-6.33 153.44-5.85 154.09-5.85L154.09-5.85 159.64-5.85 159.64 0ZM159.64-19.65L141.29-19.65 141.29-25.5 159.64-25.5 159.64-19.65ZM186.54 0L181.09 0Q176.99-0.1 173.69-1.48 170.39-2.85 168.04-5.23 165.69-7.6 164.41-10.75 163.14-13.9 163.14-17.5L163.14-17.5Q163.14-21.1 164.41-24.25 165.69-27.4 168.04-29.78 170.39-32.15 173.69-33.55 176.99-34.95 181.09-35L181.09-35 186.54-35 186.54-28.7 181.24-28.7Q178.84-28.65 176.84-27.8 174.84-26.95 173.36-25.45 171.89-23.95 171.09-21.93 170.29-19.9 170.29-17.5L170.29-17.5Q170.29-15.1 171.09-13.08 171.89-11.05 173.36-9.55 174.84-8.05 176.84-7.2 178.84-6.35 181.24-6.3L181.24-6.3 186.54-6.3 186.54 0ZM207.74 10.15L200.89 10.15 200.89 0.25Q197.99-0.35 195.96-1.95 193.94-3.55 192.86-5.88 191.79-8.2 191.79-10.85L191.79-10.85 191.79-25.5 198.64-25.5 198.64-10.85Q198.64-9.3 199.39-8.03 200.14-6.75 201.41-6 202.69-5.25 204.24-5.25L204.24-5.25Q205.79-5.25 207.06-6 208.34-6.75 209.09-8.03 209.84-9.3 209.84-10.85L209.84-10.85 209.84-25.5 216.69-25.5 216.69-10.85Q216.69-8.2 215.64-5.93 214.59-3.65 212.59-2.02 210.59-0.4 207.74 0.2L207.74 0.2 207.74 10.15ZM238.63 0L235.43 0Q231.48 0 228.38-1.7 225.28-3.4 223.48-6.28 221.68-9.15 221.68-12.75L221.68-12.75Q221.68-16.35 223.48-19.23 225.28-22.1 228.38-23.8 231.48-25.5 235.43-25.5L235.43-25.5 238.63-25.5 238.63-19.65 235.43-19.65Q233.33-19.65 231.81-18.75 230.28-17.85 229.46-16.28 228.63-14.7 228.63-12.75L228.63-12.75Q228.63-10.8 229.46-9.22 230.28-7.65 231.81-6.75 233.33-5.85 235.43-5.85L235.43-5.85 238.63-5.85 238.63 0ZM250.23 0L243.38 0 243.38-36.5 250.23-36.5 250.23 0ZM276.78 0L269.58 0Q265.23 0 262-1.68 258.78-3.35 257-6.25 255.23-9.15 255.23-12.75L255.23-12.75Q255.23-16.8 256.88-19.8 258.53-22.8 261.38-24.45 264.23-26.1 267.83-26.1L267.83-26.1Q272.13-26.1 274.8-24.3 277.48-22.5 278.73-19.48 279.98-16.45 279.98-12.75L279.98-12.75Q279.98-12.25 279.93-11.58 279.88-10.9 279.78-10.55L279.78-10.55 262.53-10.55Q262.93-9 263.9-7.95 264.88-6.9 266.35-6.38 267.83-5.85 269.68-5.85L269.68-5.85 276.78-5.85 276.78 0ZM262.48-15.15L262.48-15.15 273.13-15.15Q273.03-16.1 272.78-16.93 272.53-17.75 272.08-18.4 271.63-19.05 271.03-19.5 270.43-19.95 269.63-20.2 268.83-20.45 267.88-20.45L267.88-20.45Q266.63-20.45 265.65-20 264.68-19.55 264.03-18.8 263.38-18.05 263-17.1 262.63-16.15 262.48-15.15Z" fill="#22c995" data-fill-palette-color="primary"></path></g></svg></g></svg></g></svg></g></svg></g><g><svg viewBox="0 0 161.60232236497785 161.60232236497785" height="161.60232236497785" width="161.60232236497785"><g><svg></svg></g><g id="icon-0"><svg viewBox="0 0 161.60232236497785 161.60232236497785" height="161.60232236497785" width="161.60232236497785"><g><path d="M0 80.801c0-44.625 36.176-80.801 80.801-80.801 44.625 0 80.801 36.176 80.801 80.801 0 44.625-36.176 80.801-80.801 80.801-44.625 0-80.801-36.176-80.801-80.801zM80.801 155.617c41.32 0 74.816-33.496 74.816-74.816 0-41.32-33.496-74.816-74.816-74.816-41.32 0-74.816 33.496-74.816 74.816 0 41.32 33.496 74.816 74.816 74.816z" data-fill-palette-color="accent" fill="#31c48d" stroke="transparent"></path><ellipse rx="79.99314957066403" ry="79.99314957066403" cx="80.80116118248893" cy="80.80116118248893" fill="#31c48d" stroke="transparent" stroke-width="0" fill-opacity="1" data-fill-palette-color="accent"></ellipse></g><g transform="matrix(1,0,0,1,34.041677926036044,60.18979350615021)"><svg viewBox="0 0 93.51896651290576 41.22273535267744" height="41.22273535267744" width="93.51896651290576"><g><svg xmlns:x="http://ns.adobe.com/Extensibility/1.0/" xmlns:i="http://ns.adobe.com/AdobeIllustrator/10.0/" xmlns:graph="http://ns.adobe.com/Graphs/1.0/" xmlns="http://www.w3.org/2000/svg" xmlns:xlink="http://www.w3.org/1999/xlink" version="1.1" x="0" y="0" viewBox="6 30.605 88 38.790000000000006" enable-background="new 0 0 100 100" xml:space="preserve" height="41.22273535267744" width="93.51896651290576" class="icon-cg-0" data-fill-palette-color="quaternary" id="cg-0"><g fill="#ffffff" data-fill-palette-color="quaternary"><path d="M94 50c0-0.442-0.195-0.836-0.5-1.111V47.5c0-0.552-0.447-1-1-1s-1 0.448-1 1v1h-1.974v-8.789c0-2.308-1.877-4.185-4.185-4.185H84c-2.308 0-4.185 1.877-4.185 4.185V48.5h-1.474V35.237c0-2.308-1.877-4.185-4.184-4.185h-3.579c-2.308 0-4.185 1.877-4.185 4.185V43.5H33.605v-8.711c0-2.307-1.877-4.184-4.185-4.184h-3.579c-2.308 0-4.185 1.877-4.185 4.184V48.5h-1.474v-8.789c0-2.308-1.877-4.185-4.184-4.185h-1.342c-2.307 0-4.184 1.877-4.184 4.185V48.5H8.5v-1c0-0.552-0.448-1-1-1s-1 0.448-1 1v1.389C6.195 49.164 6 49.558 6 50s0.195 0.836 0.5 1.111V52.5c0 0.553 0.448 1 1 1s1-0.447 1-1v-1h1.974v8.789c0 2.308 1.877 4.185 4.184 4.185H16c2.307 0 4.184-1.877 4.184-4.185V51.5h1.474v13.263c0 2.308 1.877 4.185 4.185 4.185h3.579c2.308 0 4.185-1.877 4.185-4.185V56.5h32.789v8.71c0 2.308 1.877 4.185 4.185 4.185h3.579c2.307 0 4.184-1.877 4.184-4.185V51.5h1.474v8.789c0 2.308 1.877 4.185 4.185 4.185h1.342c2.308 0 4.185-1.877 4.185-4.185V51.5H91.5v1c0 0.553 0.447 1 1 1s1-0.447 1-1v-1.39C93.805 50.836 94 50.442 94 50zM17.184 60.289c0 0.653-0.531 1.185-1.184 1.185h-1.342c-0.653 0-1.184-0.531-1.184-1.185V39.711c0-0.653 0.531-1.185 1.184-1.185H16c0.653 0 1.184 0.531 1.184 1.185V60.289zM30.605 64.763c0 0.653-0.531 1.185-1.185 1.185h-3.579c-0.653 0-1.185-0.531-1.185-1.185V34.789c0-0.653 0.531-1.184 1.185-1.184h3.579c0.653 0 1.185 0.531 1.185 1.184V64.763zM66 53.5H34v-7h32V53.5zM75.342 65.21c0 0.653-0.531 1.185-1.184 1.185h-3.579c-0.653 0-1.185-0.531-1.185-1.185V35.237c0-0.653 0.531-1.185 1.185-1.185h3.579c0.652 0 1.184 0.531 1.184 1.185V65.21zM86.526 60.289c0 0.653-0.531 1.185-1.185 1.185H84c-0.653 0-1.185-0.531-1.185-1.185V39.711c0-0.653 0.531-1.185 1.185-1.185h1.342c0.653 0 1.185 0.531 1.185 1.185V60.289z" fill="#ffffff" data-fill-palette-color="quaternary"></path><path d="M37.5 51h25c0.553 0 1-0.448 1-1s-0.447-1-1-1h-25c-0.552 0-1 0.448-1 1S36.948 51 37.5 51z" fill="#ffffff" data-fill-palette-color="quaternary"></path></g></svg><g></g></g></svg></g></svg></g></svg></g></svg></g><defs></defs></svg><rect width="395.52" height="108.6174529456882" fill="none" stroke="none" visibility="hidden"></rect></g></svg></g></svg>